# xmcd
#
# Track frame offsets:
#	150
#	19884
#	39521
#	61146
#	81038
#	103995
#	167129
#	210723
#	236368
#	265585
#	283877
#	290380
#	307955
#
# Disc length: 4348 seconds
#
# Revision: 0
# Processed by: cddbd v1.4PL0 Copyright (c) Steve Scherf et al.
# Submitted via: OrangeCD 4.1
#
DISCID=b210fa0d
DTITLE=Toy Caldwell - Can't You See
DYEAR=1900
DGENRE=
TTITLE0=I Hear The South Calling Me
TTITLE1=Searchin' For A Rainbow
TTITLE2=Heard It In A Love Song
TTITLE3=Long Hard Ride
TTITLE4=Mexico
TTITLE5=24 Hours At A Time
TTITLE6=Milk Cow Blues
TTITLE7=Fly Eagle Fly
TTITLE8=Can't You See
TTITLE9=Night Life
TTITLE10=Ab's Song
TTITLE11=High Noon
TTITLE12=Trouble In Dixie
EXTD=
EXTT0=
EXTT1=
EXTT2=
EXTT3=
EXTT4=
EXTT5=
EXTT6=
EXTT7=
EXTT8=
EXTT9=
EXTT10=
EXTT11=
EXTT12=
PLAYORDER=
